<svg xmlns="http://www.w3.org/2000/svg" xmlns:xlink="http://www.w3.org/1999/xlink" width="32" height="203" viewBox="0 0 32 203"><svg width="32" height="18" viewBox="0 0 32 18" fill="none" id="arrow" y="0"><path d="M1.5 1.5l14 14 15-14" stroke="#fff" stroke-width="3"></path></svg><svg width="16" height="16" viewBox="0 0 16 16" fill="none" id="city" y="18"><path d="M0 16h8V0H0v16zM5 2h2v2H5V2zm0 4h2v2H5V6zm0 4h2v2H5v-2zM1 2h2v2H1V2zm0 4h2v2H1V6zm0 4h2v2H1v-2zm8-5h7v1H9V5zm0 11h2v-4h3v4h2V7H9v9z" fill="#000"></path></svg><svg width="30" height="30" viewBox="0 0 30 30" fill="none" id="fb" y="34"><path d="M15 30c8.284 0 15-6.716 15-15 0-8.284-6.716-15-15-15C6.716 0 0 6.716 0 15c0 8.284 6.716 15 15 15z" fill="#fff"></path><path d="M18.77 15.587h-2.676v9.805H12.04v-9.805h-1.928V12.14h1.928V9.91c0-1.595.758-4.092 4.092-4.092l3.003.012v3.345h-2.18c-.357 0-.86.18-.86.94v2.028h3.031l-.354 3.443z" fill="#000"></path></svg><svg width="30" height="30" viewBox="0 0 30 30" fill="none" id="inst" y="64"><path d="M19.47 7.981h-8.94A2.591 2.591 0 0 0 7.94 10.57v8.941a2.591 2.591 0 0 0 2.588 2.589h8.942a2.592 2.592 0 0 0 2.588-2.589V10.57a2.591 2.591 0 0 0-2.588-2.589zM15 19.688a4.653 4.653 0 0 1-4.648-4.648A4.653 4.653 0 0 1 15 10.393a4.653 4.653 0 0 1 4.648 4.647A4.653 4.653 0 0 1 15 19.688zm4.797-8.334a1.101 1.101 0 1 1 1.1-1.1 1.1 1.1 0 0 1-1.1 1.1z" fill="#fff"></path><path d="M15 12.357a2.687 2.687 0 0 0-2.684 2.683A2.688 2.688 0 0 0 15 17.724a2.687 2.687 0 0 0 2.684-2.684A2.687 2.687 0 0 0 15 12.357z" fill="#fff"></path><path d="M15 0C6.716 0 0 6.716 0 15c0 8.284 6.716 15 15 15 8.284 0 15-6.716 15-15 0-8.284-6.716-15-15-15zm9.023 19.511a4.557 4.557 0 0 1-4.552 4.552h-8.942a4.557 4.557 0 0 1-4.552-4.552V10.57a4.557 4.557 0 0 1 4.552-4.552h8.942a4.557 4.557 0 0 1 4.552 4.552v8.941z" fill="#fff"></path></svg><svg width="15" height="15" viewBox="0 0 15 15" fill="none" id="mobile" y="94"><path d="M10.894 0H4.106c-.565 0-1.028.462-1.028 1.028V13.972A1.03 1.03 0 0 0 4.106 15h6.788a1.03 1.03 0 0 0 1.028-1.028V1.028C11.922.462 11.46 0 10.894 0zM5.57 13.816H4.462a.37.37 0 1 1 0-.74H5.57a.37.37 0 0 1 0 .74zm0-1.41H4.462a.37.37 0 0 1 0-.739H5.57a.37.37 0 0 1 0 .74zm0-1.409H4.462a.37.37 0 1 1 0-.74H5.57a.37.37 0 0 1 0 .74zm0-1.409H4.462a.37.37 0 0 1 0-.74H5.57a.37.37 0 0 1 0 .74zm2.484 4.228H6.946a.37.37 0 1 1 0-.74h1.108a.37.37 0 0 1 0 .74zm0-1.41H6.946a.37.37 0 0 1 0-.739h1.108a.37.37 0 1 1 0 .74zm0-1.409H6.946a.37.37 0 1 1 0-.74h1.108a.37.37 0 1 1 0 .74zm0-1.409H6.946a.37.37 0 1 1 0-.74h1.108a.37.37 0 0 1 0 .74zm2.485 4.228h-1.11a.37.37 0 1 1 0-.74h1.11a.37.37 0 0 1 0 .74zm0-1.41h-1.11a.37.37 0 0 1 0-.739h1.11a.37.37 0 0 1 0 .74zm0-1.409h-1.11a.37.37 0 1 1 0-.74h1.11a.37.37 0 0 1 0 .74zm0-1.409h-1.11a.37.37 0 0 1 0-.74h1.11a.37.37 0 0 1 0 .74zm.391-1.593H4.07v-6.79h6.86v6.79z" fill="#BEF4FF"></path></svg><svg width="16" height="16" viewBox="0 0 16 16" fill="none" id="mobile-black" y="109"><path d="M11.62 0H4.38a1.1 1.1 0 0 0-1.097 1.097V14.904A1.1 1.1 0 0 0 4.38 16h7.24a1.1 1.1 0 0 0 1.097-1.097V1.098A1.1 1.1 0 0 0 11.62 0zM5.941 14.737H4.76a.394.394 0 1 1 0-.789h1.182a.395.395 0 0 1 0 .789zm0-1.503H4.76a.395.395 0 0 1 0-.79h1.182a.395.395 0 0 1 0 .79zm0-1.504H4.76a.394.394 0 1 1 0-.789h1.182a.394.394 0 0 1 0 .79zm0-1.503H4.76a.395.395 0 0 1 0-.789h1.182a.395.395 0 0 1 0 .79zm2.65 4.51H7.41a.394.394 0 1 1 0-.789h1.182a.394.394 0 0 1 0 .789zm0-1.503H7.41a.394.394 0 1 1 0-.79h1.182a.394.394 0 1 1 0 .79zm0-1.504H7.41a.394.394 0 1 1 0-.789h1.182a.394.394 0 1 1 0 .79zm0-1.503H7.41a.394.394 0 1 1 0-.789h1.182a.395.395 0 0 1 0 .79zm2.65 4.51h-1.183a.394.394 0 1 1 0-.789h1.183a.395.395 0 0 1 0 .789zm0-1.503h-1.183a.395.395 0 0 1 0-.79h1.183a.395.395 0 0 1 0 .79zm0-1.504h-1.183a.394.394 0 1 1 0-.789h1.183a.394.394 0 0 1 0 .79zm0-1.503h-1.183a.395.395 0 0 1 0-.789h1.183a.395.395 0 0 1 0 .79zm.418-1.698H4.34V1.286h7.318v7.243z" fill="#000"></path></svg><svg width="16" height="16" viewBox="0 0 16 16" fill="none" id="phone" y="125"><g clip-path="url(#a)"><path d="M15.641 12.645l-2.47-2.471c-.493-.49-1.308-.476-1.817.034l-1.245 1.244a34.78 34.78 0 0 1-.246-.136c-.786-.436-1.862-1.033-2.994-2.166-1.136-1.135-1.733-2.213-2.17-3l-.134-.24.836-.834.41-.411c.51-.51.524-1.325.033-1.817L3.374.377C2.882-.114 2.067-.1 1.557.41l-.696.7.019.02a4.027 4.027 0 0 0-.574 1.011c-.134.353-.217.69-.256 1.027-.326 2.705.91 5.177 4.265 8.531 4.637 4.637 8.373 4.287 8.535 4.27a4.176 4.176 0 0 0 1.03-.259 4.01 4.01 0 0 0 1.008-.571l.015.013.705-.69c.51-.51.524-1.326.033-1.818z" fill="#BEF4FF"></path></g><defs><clipPath id="a"><path fill="#fff" d="M0 0h16v16H0z"></path></clipPath></defs></svg><svg width="16" height="16" viewBox="0 0 16 16" fill="none" id="phone-black" y="141"><g clip-path="url(#a)"><path d="M15.641 12.645l-2.47-2.472c-.493-.49-1.308-.475-1.817.035l-1.245 1.244a34.65 34.65 0 0 1-.246-.136c-.786-.436-1.862-1.033-2.994-2.166-1.136-1.135-1.733-2.213-2.17-3l-.134-.24.836-.834.41-.411c.51-.51.524-1.325.033-1.817L3.374.377C2.882-.114 2.067-.1 1.557.41l-.696.7.019.02a4.027 4.027 0 0 0-.574 1.011c-.134.353-.217.69-.256 1.027-.326 2.705.91 5.177 4.265 8.531 4.637 4.637 8.373 4.287 8.535 4.27a4.171 4.171 0 0 0 1.03-.259c.366-.143.71-.338 1.008-.571l.015.013.705-.69c.51-.51.524-1.326.033-1.818z" fill="#000"></path></g><defs><clipPath id="a"><path fill="#fff" d="M0 0h16v16H0z"></path></clipPath></defs></svg><svg width="16" height="16" viewBox="0 0 16 16" fill="none" id="phone-red" y="157"><g clip-path="url(#a)"><path d="M15.641 12.645l-2.47-2.472c-.493-.49-1.308-.475-1.817.035l-1.245 1.244a34.65 34.65 0 0 1-.246-.136c-.786-.436-1.862-1.033-2.994-2.166-1.136-1.135-1.733-2.213-2.17-3l-.134-.24.836-.834.41-.411c.51-.51.524-1.325.033-1.817L3.374.377C2.882-.114 2.067-.1 1.557.41l-.696.7.019.02a4.027 4.027 0 0 0-.574 1.011c-.134.353-.217.69-.256 1.027-.326 2.705.91 5.177 4.265 8.531 4.637 4.637 8.373 4.287 8.535 4.27a4.171 4.171 0 0 0 1.03-.259c.366-.143.71-.338 1.008-.571l.015.013.705-.69c.51-.51.524-1.326.033-1.818z" fill="#ED1A23"></path></g><defs><clipPath id="a"><path fill="#fff" d="M0 0h16v16H0z"></path></clipPath></defs></svg><svg width="30" height="30" viewBox="0 0 30 30" fill="none" id="vk" y="173"><path d="M15 30c8.284 0 15-6.716 15-15 0-8.284-6.716-15-15-15C6.716 0 0 6.716 0 15c0 8.284 6.716 15 15 15z" fill="#fff"></path><path fill-rule="evenodd" clip-rule="evenodd" d="M14.433 21.579h1.178s.355-.04.537-.235c.167-.18.162-.517.162-.517s-.023-1.58.71-1.812c.723-.23 1.65 1.526 2.634 2.202.744.51 1.31.399 1.31.399l2.63-.037s1.376-.085.723-1.167c-.053-.088-.38-.8-1.955-2.263-1.65-1.53-1.429-1.283.558-3.93 1.21-1.613 1.694-2.598 1.543-3.02-.145-.401-1.034-.295-1.034-.295l-2.962.018s-.22-.03-.382.068c-.16.095-.262.318-.262.318s-.469 1.248-1.094 2.309c-1.319 2.24-1.846 2.357-2.061 2.218-.502-.324-.377-1.302-.377-1.996 0-2.17.33-3.075-.64-3.31-.322-.077-.56-.129-1.383-.137-1.056-.01-1.95.003-2.457.252-.337.165-.597.532-.439.553.196.027.64.12.874.44.304.413.293 1.34.293 1.34s.175 2.555-.407 2.872c-.4.218-.947-.227-2.123-2.258C9.407 12.55 8.952 11.4 8.952 11.4s-.088-.215-.244-.33c-.19-.14-.455-.184-.455-.184l-2.814.019s-.423.011-.578.195c-.138.163-.01.501-.01.501s2.202 5.155 4.697 7.753c2.288 2.381 4.885 2.225 4.885 2.225z" fill="#000"></path></svg></svg>