<svg width="16" height="16" viewBox="0 0 16 16" fill="none" xmlns="http://www.w3.org/2000/svg">
<path d="M11.6203 0H4.37988C3.77667 0 3.28296 0.493243 3.28296 1.09692V4.56911V11.4314V14.9035C3.28296 15.5072 3.77667 16 4.37988 16H11.6203C12.2235 16 12.7172 15.5072 12.7172 14.9035V11.4314V4.56911V1.09692C12.7172 0.493243 12.2235 0 11.6203 0ZM5.94127 14.737H4.75898C4.54135 14.737 4.36457 14.5606 4.36457 14.343C4.36457 14.1249 4.54135 13.9481 4.75898 13.9481H5.94127C6.15889 13.9481 6.33568 14.1249 6.33568 14.343C6.33568 14.5606 6.15889 14.737 5.94127 14.737ZM5.94127 13.2336H4.75898C4.54135 13.2336 4.36457 13.0568 4.36457 12.8392C4.36457 12.6215 4.54135 12.4448 4.75898 12.4448H5.94127C6.15889 12.4448 6.33568 12.6215 6.33568 12.8392C6.33568 13.0568 6.15889 13.2336 5.94127 13.2336ZM5.94127 11.7302H4.75898C4.54135 11.7302 4.36457 11.5539 4.36457 11.3362C4.36457 11.1177 4.54135 10.9414 4.75898 10.9414H5.94127C6.15889 10.9414 6.33568 11.1177 6.33568 11.3362C6.33568 11.5539 6.15889 11.7302 5.94127 11.7302ZM5.94127 10.2273H4.75898C4.54135 10.2273 4.36457 10.0505 4.36457 9.83284C4.36457 9.61522 4.54135 9.43797 4.75898 9.43797H5.94127C6.15889 9.43797 6.33568 9.61522 6.33568 9.83284C6.33568 10.0505 6.15889 10.2273 5.94127 10.2273ZM8.59124 14.737H7.4094C7.19132 14.737 7.01499 14.5606 7.01499 14.343C7.01499 14.1249 7.19132 13.9481 7.4094 13.9481H8.59124C8.80932 13.9481 8.98564 14.1249 8.98564 14.343C8.98518 14.5606 8.80886 14.737 8.59124 14.737ZM8.59124 13.2336H7.4094C7.19132 13.2336 7.01499 13.0568 7.01499 12.8392C7.01499 12.6215 7.19132 12.4448 7.4094 12.4448H8.59124C8.80932 12.4448 8.98564 12.6215 8.98564 12.8392C8.98564 13.0568 8.80886 13.2336 8.59124 13.2336ZM8.59124 11.7302H7.4094C7.19132 11.7302 7.01499 11.5539 7.01499 11.3362C7.01499 11.1177 7.19132 10.9414 7.4094 10.9414H8.59124C8.80932 10.9414 8.98564 11.1177 8.98564 11.3362C8.98518 11.5539 8.80886 11.7302 8.59124 11.7302ZM8.59124 10.2273H7.4094C7.19132 10.2273 7.01499 10.0505 7.01499 9.83284C7.01499 9.61522 7.19132 9.43797 7.4094 9.43797H8.59124C8.80932 9.43797 8.98564 9.61522 8.98564 9.83284C8.98564 10.0505 8.80886 10.2273 8.59124 10.2273ZM11.2412 14.737H10.0584C9.84082 14.737 9.66403 14.5606 9.66403 14.343C9.66403 14.1249 9.84082 13.9481 10.0584 13.9481H11.2412C11.4588 13.9481 11.6356 14.1249 11.6356 14.343C11.6351 14.5606 11.4584 14.737 11.2412 14.737ZM11.2412 13.2336H10.0584C9.84082 13.2336 9.66403 13.0568 9.66403 12.8392C9.66403 12.6215 9.84082 12.4448 10.0584 12.4448H11.2412C11.4588 12.4448 11.6356 12.6215 11.6356 12.8392C11.6356 13.0568 11.4584 13.2336 11.2412 13.2336ZM11.2412 11.7302H10.0584C9.84082 11.7302 9.66403 11.5539 9.66403 11.3362C9.66403 11.1177 9.84082 10.9414 10.0584 10.9414H11.2412C11.4588 10.9414 11.6356 11.1177 11.6356 11.3362C11.6351 11.5539 11.4584 11.7302 11.2412 11.7302ZM11.2412 10.2273H10.0584C9.84082 10.2273 9.66403 10.0505 9.66403 9.83284C9.66403 9.61522 9.84082 9.43797 10.0584 9.43797H11.2412C11.4588 9.43797 11.6356 9.61522 11.6356 9.83284C11.6356 10.0505 11.4584 10.2273 11.2412 10.2273ZM11.6588 8.52851H4.34137V1.28577H11.6588V8.52851Z" fill="black"/>
</svg>
