<?xml version="1.0" encoding="utf-8"?>
<!-- Generator: Adobe Illustrator 19.1.1, SVG Export Plug-In . SVG Version: 6.00 Build 0)  -->
<svg version="1.1" id="Слой_1" xmlns="http://www.w3.org/2000/svg" xmlns:xlink="http://www.w3.org/1999/xlink" x="0px" y="0px"
	 viewBox="-202 -38.9 553.3 590" style="enable-background:new -202 -38.9 553.3 590;" xml:space="preserve">
<style type="text/css">
	.st0{fill:none;}
	.st1{display:none;fill:#FFFFFF;}
	.st2{fill:#FFFFFF;}
	.st3{fill:#ED1A23;}
	.st4{fill:#272425;}
	.st5{fill:#ED1A23;stroke:#FFFFFF;stroke-miterlimit:10;}
</style>
<g>
	<path class="st0" d="M-185,397.3L47.7-9.2c0,0,35-35.7,56.2,0c21.1,35.6,234,406.5,234,406.5s13,48.8-28.1,48.8s-466.7,0-466.7,0
		S-199,442.1-185,397.3z"/>
	<g>
		<path class="st1" d="M106.7-4.8c76.8,133.1,151.6,270.9,231.2,402.1c12.2,20-5.6,48.8-28.1,48.8c-155.6,0-311.1,0-466.7,0
			c-22.5,0-40.3-28.8-28.1-48.8c79.6-131.2,154.5-269,231.3-402.1C62-32.1,90.9-32.1,106.7-4.8L106.7-4.8z"/>
		<path d="M309.8,449.1h-466.7c-11.9,0-23.5-7.3-30.1-19.1c-6.4-11.4-6.7-24.2-0.6-34.2C-135.9,310.6-85.5,221.3-36.7,135
			C-10.4,88.5,16.7,40.4,43.7-6.2c8.1-14,20-22,32.8-22l0,0c12.8,0,24.7,8,32.8,22c26.8,46.5,53.9,94.4,80.1,140.8
			c48.9,86.5,99.4,176,151.2,261.3c6.1,10,5.8,22.8-0.6,34.2C333.3,441.7,321.8,449.1,309.8,449.1z M76.5-22.3
			c-10.6,0-20.6,6.9-27.6,19C22,43.4-5.2,91.4-31.4,137.9c-48.8,86.4-99.2,175.7-151,261c-4.9,8.1-4.7,18.6,0.7,28.2
			c5.6,9.9,15.1,16.1,24.9,16.1h466.7c9.8,0,19.3-6.2,24.9-16.1c5.4-9.5,5.6-20,0.7-28.2c-52-85.5-102.5-175-151.4-261.5
			c-26.2-46.3-53.2-94.2-80-140.7l0,0C97.1-15.4,87-22.3,76.5-22.3L76.5-22.3z"/>
	</g>
	<polygon class="st2" points="-166,411.1 76.6,-0.9 314,411.1 	"/>
	<path class="st3" d="M330.9,401.6c-4.2-6.8-8.1-13.8-12.1-20.8L99.5-0.7C87.3-22,65.7-22,53.4-0.7l-219.3,381.5
		c-4,6.9-7.9,13.9-12.1,20.8c-8.7,14.4,4.8,36.3,21.1,36.3h466.7C326.2,437.9,339.6,416,330.9,401.6z M275.3,401.2H64.2
		c-62.2,0-124.3,0-186.4,0c-3.4,0-8.8-7.4-6.7-10.9c3.5-5.9,7-11.9,10.4-17.9l186.8-325c5.2-9.1,11.2-9.1,16.4,0L249,333.2
		c10.4,18.1,22.2,39.4,33,57.1C284.1,393.8,278.7,401.2,275.3,401.2z"/>
</g>
<path class="st4" d="M20.7,248.6c0,0,9-9.2,13.8-12.1s17.9-10.7,30.8-12.1c12.8-1.5,27.6-3.6,48.7,8s26.2,29.6,27.9,38.1
	c1.7,8.5,1.7,21.3,1.2,27.4s1.5,25.7,6.5,36.1c5.1,10.4,13.3,24.7,34.2,35.4c0,0,9.2,4.6,15.3,5.8c0,0-14.1-20.1-17.7-42.7
	c0,0,0.5-14.8,2.9-23.8s2.7-13.3,2.7-13.3s-6.8-2.7-7.8-3.9c0,0,3.9-1.3,9.2-1.7c0,0,3.5-17.5,0.7-32.5c-2.7-14.9-5.1-21.6-5.1-21.6
	s-7.9,0.7-9.5,1.8c0,0-6.2,0.3-7.4-0.2c0,0,9.1-6,14-6.8c0,0-4.6-10.6-9.8-17.5S160,200.7,160,200.7s-13.6,11.5-16.2,13.1
	s-3.9,2.6-5.2,3.3c-1.3,0.6,6.8-8.7,9.7-12.4s7.5-9.4,7.2-8.7c0,0-10.2-9.3-12.3-10.5c0,0-3.5,2.8-7,6.3s-4,3.8-4,3.8
	s4.1-9.1,6.1-12.3c0,0-6.9-4.5-14.7-7.7c-7.8-3.3-15.9-5.4-15.9-5.4s-9.6,29.9-11.5,32.8c-1.9,2.9,4.5-25.5,4.4-34.8
	c0,0-13.1-4.1-35.8-2.2c-22.7,1.9-34,7.4-34,7.4s1.5,6.5,3.9,9.8c0,0,1.5,3,0.8,4.2c-0.6,1.2-5.1-8-11.2-11.3
	c0,0-15.2,7.3-21.8,13.5c0,0-8.8,6.6-13.5,12.2c0,0,13.8,6.2,17.2,11.5c0,0-7.2-2.8-11.2-4.2s-9-3.4-9-3.4s-5.3,4.7-9.2,10.6
	s-5.3,8.5-5.3,8.5s17.7,2.2,27.4,7.1C8.6,236.8,14.3,241.8,20.7,248.6z"/>
<path class="st4" d="M63.9,233.3c0,0-11,0.2-19.4,6s-12,10-18.4,18.1c0,0-3.8-6.1-3.7-6s6.4-9.1,11.7-12.6S44.8,231,61,227.4
	s33.8-1.3,44.4,2.9c10.7,4.2,19.9,10.6,24.9,19.1s9.3,18.1,10.1,26.6c0.8,8.5,1.7,9.2,0.9,12.5s-2.1,5.6-3.9,5.3
	c0,0,2.2-14.7-1.2-23.2c-3.4-8.5-2.8-10.5-10.4-20.2c0,0-2.5-2.6-4.5-3.8c-2-1.2-0.8,1.7,0.9,2.8c1.7,1.2,7.6,7.7,9.5,13.5
	s3.6,10.7,2.4,24.8c-1.2,14.1-2.4,24-1,31.8c1.3,7.8,3.8,16.1,11.9,21.7c0,0,6.4,5.4,8.2,8.4c-0.1,0.4-16.9-1.8-25.3-1.3
	s-21.4,2.4-28.4,4.8c-7,2.5-13.3,5.8-13.3,5.8s3.8-17.2,4.4-21s0.9-5.8,0.9-5.8s0.1-2.5-1.8,1.7s-8.6,19-11.9,24.2s-5.9,8.7-6.6,9.7
	s-1.7,2.4-10.9,6c-9.2,3.6-36.4,13.1-36.4,13.1S9,392.4,6.2,393.6c0,0,1.7-26.5,4.6-42.8c2.9-16.2,6.4-31.9,6.4-31.9
	s2.3-1.3,28.9-8.6c0,0,11.2-3.4,15.7-9.5s3.9-5.5,3-5.5c-0.8,0.1-12.7,3-15.3,3.6c-2.7,0.5-18,4.6-23.6,5.6s-8.2,1.2-8.2,1.2
	s-1.7,4-8.7,32.9c0,0-11,0.8-10.8,0.9s12.4-30.4,12.4-30.4s1.1-1.5-1.1-1.3H8c0,0,3.3-17,5.3-24.2s5-14.5,5.4-15.1
	c0,0,19.6,5.1,24.9,4.9c5.3-0.2-20.2-6.8-20.2-6.8s6.3-14.2,13.7-20.1s16-10.8,25.2-12.5c0.5-0.1,4.1-1.2,2.1-1
	C62.1,233.4,63.9,233.3,63.9,233.3z"/>
<g>
	<path d="M-84.3,544.9c-4,0-7.8-0.8-11.5-2.4c-3.7-1.6-6.9-3.9-9.8-6.8c-2.8-3-5-6.6-6.7-10.9c-1.7-4.3-2.5-9.1-2.5-14.5
		s0.8-10.2,2.5-14.6c1.6-4.4,3.9-8.1,6.8-11.3c2.9-3.1,6.3-5.5,10.2-7.3c3.9-1.7,8.1-2.6,12.5-2.6c3.3,0,6.3,0.4,9,1.2
		s5.2,2,7.7,3.5l1.9-3.2h3.8l0.4,24h-3.9c-0.5-2.3-1.3-4.9-2.3-7.6c-1-2.7-2.2-5-3.5-6.9c-1.5-2.1-3.3-3.8-5.4-5s-4.5-1.8-7.1-1.8
		c-3.1,0-5.9,0.7-8.5,2c-2.6,1.4-4.9,3.4-6.8,6c-1.8,2.6-3.3,5.8-4.3,9.8s-1.6,8.4-1.6,13.2c0,4.3,0.5,8.2,1.6,11.8s2.6,6.7,4.7,9.5
		c2,2.7,4.4,4.8,7.2,6.3c2.8,1.5,5.8,2.3,9.2,2.3c2.6,0,4.9-0.4,7-1.2c2.1-0.8,4-1.9,5.6-3.2c1.6-1.4,3-3,4.2-4.7
		c1.2-1.8,2.2-3.7,2.9-5.8l3.6,1.7c-2.7,6.7-6.3,11.4-10.8,14.3C-72.8,543.5-78.1,544.9-84.3,544.9z"/>
	<path d="M17.3,543.3h-27.9v-3.4c0.8-0.1,1.9-0.2,3.3-0.3c1.4-0.1,2.4-0.3,3-0.6c0.9-0.4,1.6-1,2.1-1.7c0.4-0.8,0.7-1.8,0.7-3v-54
		h-30.9v53.5c0,1.1,0.2,2,0.5,2.8c0.4,0.8,1.1,1.4,2.2,2c0.5,0.3,1.5,0.6,2.9,0.9c1.4,0.3,2.5,0.4,3.2,0.5v3.4h-27.9V540
		c0.8-0.1,1.9-0.2,3.3-0.3c1.4-0.1,2.4-0.3,3-0.6c0.9-0.4,1.6-1,2.1-1.7c0.4-0.8,0.7-1.8,0.7-3v-48.5c0-1-0.2-1.9-0.6-2.8
		c-0.4-0.8-1.1-1.5-2.1-2c-0.9-0.4-1.9-0.8-3.1-1.1c-1.2-0.3-2.3-0.5-3.1-0.6v-3.3h68.9v3.4c-0.9,0-2,0.2-3.2,0.4
		c-1.3,0.3-2.2,0.5-2.9,0.7c-1.1,0.4-1.8,1-2.2,1.9s-0.5,1.8-0.5,2.9v48.5c0,1.1,0.2,2,0.5,2.8c0.4,0.8,1.1,1.4,2.2,2
		c0.5,0.3,1.5,0.6,2.9,0.9c1.4,0.3,2.5,0.4,3.2,0.5v3.2H17.3z"/>
	<path d="M89.5,543.3H61.6v-3.4c2.5-0.2,4.5-0.5,6.1-0.9c1.6-0.5,2.4-1.1,2.4-1.8c0-0.3,0-0.6-0.1-1s-0.2-0.8-0.3-1.1L64.1,520H40.5
		c-0.9,2.2-1.6,4.1-2.2,5.8s-1.1,3.2-1.5,4.5c-0.4,1.4-0.7,2.5-0.9,3.3c-0.2,0.9-0.2,1.5-0.2,2.1c0,1.3,1,2.2,3,2.9s4.2,1.1,6.7,1.2
		v3.4H20.1v-3.4c0.8-0.1,1.8-0.2,3.1-0.5s2.2-0.7,3-1.2c1.3-0.9,2.2-1.7,2.9-2.7c0.7-0.9,1.4-2.2,2-3.9c3.4-8.4,7.1-17.9,11.2-28.4
		S50,483.2,53.2,475H57l22.4,58c0.5,1.2,1,2.2,1.6,3s1.4,1.5,2.5,2.2c0.7,0.4,1.7,0.8,2.8,1.1c1.2,0.3,2.1,0.5,2.9,0.5v3.5H89.5z
		 M62.4,515.8l-10.2-26.1l-10,26.1H62.4z"/>
	<path d="M143.3,492.7c0,3.5-0.7,6.6-2.1,9.3s-3.3,4.9-5.7,6.7c-2.4,1.8-5,3.1-7.9,3.9s-5.9,1.2-9.1,1.2H111v20.4
		c0,1.1,0.2,2.1,0.5,2.9c0.4,0.8,1.1,1.5,2.3,1.9c0.6,0.2,1.6,0.4,3,0.6c1.4,0.2,2.8,0.3,4,0.3v3.4H92v-3.4c0.8-0.1,1.9-0.2,3.3-0.3
		c1.4-0.2,2.4-0.4,3-0.6c0.9-0.4,1.6-1,2.1-1.8c0.4-0.8,0.6-1.8,0.6-3v-48.5c0-1.1-0.2-2.1-0.5-3s-1.1-1.5-2.2-2
		c-1.2-0.4-2.4-0.7-3.6-0.9s-2.2-0.3-3.1-0.4v-3.3h30.7c6.3,0,11.3,1.5,15.2,4.5C141.4,483.6,143.3,487.6,143.3,492.7z M128.9,504.1
		c1.1-1.5,1.8-3.1,2.1-4.7s0.5-3.1,0.5-4.4c0-1.8-0.2-3.6-0.6-5.5s-1.2-3.5-2.2-4.9c-1.1-1.5-2.6-2.6-4.4-3.5
		c-1.8-0.8-4-1.2-6.7-1.2H111v29.7h4.8c3.4,0,6.2-0.5,8.3-1.6C126.2,507,127.8,505.7,128.9,504.1z"/>
	<path d="M205.7,494.3h-3.3c-0.3-1.1-0.8-2.5-1.5-4c-0.7-1.6-1.6-3-2.5-4.4c-1-1.5-2-2.7-3.1-3.8s-2.2-1.7-3.3-1.9
		c-1-0.1-2.2-0.2-3.7-0.3s-2.9-0.1-4.1-0.1h-2.8v53.8c0,1,0.2,2,0.7,2.9c0.4,0.9,1.2,1.5,2.3,2c0.6,0.2,1.8,0.5,3.6,0.9
		s3.2,0.6,4.2,0.6v3.4h-31.7V540c0.9-0.1,2.2-0.2,4-0.4s3.1-0.4,3.8-0.7c1-0.4,1.8-1,2.3-1.8s0.7-1.8,0.7-3.1v-54.2h-2.7
		c-1,0-2.2,0-3.6,0.1c-1.5,0-2.8,0.2-4.2,0.3c-1,0.1-2.1,0.8-3.2,1.9c-1.1,1.1-2.2,2.4-3.1,3.8c-0.9,1.4-1.8,2.9-2.5,4.5
		s-1.2,2.9-1.5,4h-3.3v-18.3h58.6L205.7,494.3L205.7,494.3z"/>
	<path d="M273.7,543.3h-27.9v-3.4c2.5-0.2,4.5-0.5,6.1-0.9c1.6-0.5,2.4-1.1,2.4-1.8c0-0.3,0-0.6-0.1-1s-0.2-0.8-0.3-1.1l-5.6-15.1
		h-23.6c-0.9,2.2-1.6,4.1-2.2,5.8s-1.1,3.2-1.5,4.5c-0.4,1.4-0.7,2.5-0.9,3.3c-0.2,0.9-0.2,1.5-0.2,2.1c0,1.3,1,2.2,3,2.9
		s4.2,1.1,6.7,1.2v3.4h-25.3v-3.4c0.8-0.1,1.8-0.2,3.1-0.5s2.2-0.7,3-1.2c1.3-0.9,2.2-1.7,2.9-2.7c0.7-0.9,1.4-2.2,2-3.9
		c3.4-8.4,7.1-17.9,11.2-28.4s7.7-19.9,10.9-28.1h3.8l22.4,58c0.5,1.2,1,2.2,1.6,3s1.4,1.5,2.5,2.2c0.7,0.4,1.7,0.8,2.8,1.1
		c1.2,0.3,2.1,0.5,2.9,0.5v3.5H273.7z M246.7,515.8l-10.2-26.1l-10,26.1H246.7z"/>
</g>
<path class="st5" d="M-377,225.6"/>
</svg>
