<svg width="15" height="15" viewBox="0 0 15 15" fill="none" xmlns="http://www.w3.org/2000/svg">
<path d="M10.894 0H4.10612C3.54061 0 3.07776 0.462415 3.07776 1.02836V4.28354V10.7169V13.9721C3.07776 14.538 3.54061 15 4.10612 15H10.894C11.4595 15 11.9224 14.538 11.9224 13.9721V10.7169V4.28354V1.02836C11.9224 0.462415 11.4595 0 10.894 0ZM5.56993 13.8159H4.46152C4.2575 13.8159 4.09177 13.6506 4.09177 13.4466C4.09177 13.2421 4.2575 13.0764 4.46152 13.0764H5.56993C5.77395 13.0764 5.93969 13.2421 5.93969 13.4466C5.93969 13.6506 5.77395 13.8159 5.56993 13.8159ZM5.56993 12.4065H4.46152C4.2575 12.4065 4.09177 12.2407 4.09177 12.0367C4.09177 11.8327 4.2575 11.667 4.46152 11.667H5.56993C5.77395 11.667 5.93969 11.8327 5.93969 12.0367C5.93969 12.2407 5.77395 12.4065 5.56993 12.4065ZM5.56993 10.997H4.46152C4.2575 10.997 4.09177 10.8317 4.09177 10.6277C4.09177 10.4228 4.2575 10.2575 4.46152 10.2575H5.56993C5.77395 10.2575 5.93969 10.4228 5.93969 10.6277C5.93969 10.8317 5.77395 10.997 5.56993 10.997ZM5.56993 9.58805H4.46152C4.2575 9.58805 4.09177 9.42231 4.09177 9.21829C4.09177 9.01427 4.2575 8.84809 4.46152 8.84809H5.56993C5.77395 8.84809 5.93969 9.01427 5.93969 9.21829C5.93969 9.42231 5.77395 9.58805 5.56993 9.58805ZM8.05427 13.8159H6.9463C6.74184 13.8159 6.57654 13.6506 6.57654 13.4466C6.57654 13.2421 6.74184 13.0764 6.9463 13.0764H8.05427C8.25872 13.0764 8.42403 13.2421 8.42403 13.4466C8.42359 13.6506 8.25829 13.8159 8.05427 13.8159ZM8.05427 12.4065H6.9463C6.74184 12.4065 6.57654 12.2407 6.57654 12.0367C6.57654 11.8327 6.74184 11.667 6.9463 11.667H8.05427C8.25872 11.667 8.42403 11.8327 8.42403 12.0367C8.42403 12.2407 8.25829 12.4065 8.05427 12.4065ZM8.05427 10.997H6.9463C6.74184 10.997 6.57654 10.8317 6.57654 10.6277C6.57654 10.4228 6.74184 10.2575 6.9463 10.2575H8.05427C8.25872 10.2575 8.42403 10.4228 8.42403 10.6277C8.42359 10.8317 8.25829 10.997 8.05427 10.997ZM8.05427 9.58805H6.9463C6.74184 9.58805 6.57654 9.42231 6.57654 9.21829C6.57654 9.01427 6.74184 8.84809 6.9463 8.84809H8.05427C8.25872 8.84809 8.42403 9.01427 8.42403 9.21829C8.42403 9.42231 8.25829 9.58805 8.05427 9.58805ZM10.5386 13.8159H9.42977C9.22575 13.8159 9.06001 13.6506 9.06001 13.4466C9.06001 13.2421 9.22575 13.0764 9.42977 13.0764H10.5386C10.7426 13.0764 10.9084 13.2421 10.9084 13.4466C10.9079 13.6506 10.7422 13.8159 10.5386 13.8159ZM10.5386 12.4065H9.42977C9.22575 12.4065 9.06001 12.2407 9.06001 12.0367C9.06001 11.8327 9.22575 11.667 9.42977 11.667H10.5386C10.7426 11.667 10.9084 11.8327 10.9084 12.0367C10.9084 12.2407 10.7422 12.4065 10.5386 12.4065ZM10.5386 10.997H9.42977C9.22575 10.997 9.06001 10.8317 9.06001 10.6277C9.06001 10.4228 9.22575 10.2575 9.42977 10.2575H10.5386C10.7426 10.2575 10.9084 10.4228 10.9084 10.6277C10.9079 10.8317 10.7422 10.997 10.5386 10.997ZM10.5386 9.58805H9.42977C9.22575 9.58805 9.06001 9.42231 9.06001 9.21829C9.06001 9.01427 9.22575 8.84809 9.42977 8.84809H10.5386C10.7426 8.84809 10.9084 9.01427 10.9084 9.21829C10.9084 9.42231 10.7422 9.58805 10.5386 9.58805ZM10.9301 7.99548H4.07002V1.20541H10.9301V7.99548Z" fill="#BEF4FF"/>
</svg>
